<?xml version="1.0" encoding="utf-8"?>
<!-- Svg Vector Icons : http://www.onlinewebfonts.com/icon -->
<!DOCTYPE svg PUBLIC "-//W3C//DTD SVG 1.1//EN" "http://www.w3.org/Graphics/SVG/1.1/DTD/svg11.dtd">
<svg version="1.1" xmlns="http://www.w3.org/2000/svg" xmlns:xlink="http://www.w3.org/1999/xlink" x="0px" y="0px" viewBox="0 0 1000 1000" enable-background="new 0 0 1000 1000" xml:space="preserve" heigth="512" width="512">
<metadata> Svg Vector Icons : http://www.onlinewebfonts.com/icon </metadata>
<g><g transform="translate(0.000000,511.000000) scale(0.100000,-0.100000)"><path d="M5361.2,2205.3c-456.2-74.1-891.6-250.1-1199.6-486.3l-169.1-129.7l-210.7,34.7c-266.3,46.3-467.8,46.3-720.2,2.3c-535-92.6-1042.1-389.1-1366.3-796.6c-113.5-145.9-157.5-182.9-250.1-215.4c-252.4-88-444.6-210.7-657.7-423.8c-229.3-229.3-502.5-579-599.8-768.9c-215.4-426.1-18.5-988.8,423.8-1208.9c224.6-111.2,764.2-203.8,1322.3-224.6c370.5-16.2,799,11.6,1153.3,74.1c104.2,18.5,1345.5,178.3,2758.2,356.6c1412.7,178.3,2651.7,340.4,2753.5,359c259.4,48.7,673.9,185.3,921.7,301.1c210.8,97.3,213.1,99.6,287.2,250.1c222.3,451.6,30.1,1222.8-435.4,1762.4c-375.2,428.4-859.2,687.8-1421.9,757.3c-217.7,25.5-393.7,18.5-713.3-27.8l-173.7-27.8l-180.6,118.1C6449.7,2193.8,5928.6,2293.3,5361.2,2205.3z M6229.7,1811.6c76.4-20.8,226.9-81.1,335.8-134.3c271-132,528-386.7,669.3-664.6c129.7-250.1,152.8-277.9,250.1-277.9c92.6,0,192.2,85.7,192.2,166.7c0,67.2-108.8,294.1-215.4,451.6l-81.1,120.4l129.7,16.2c759.6,95,1600.3-405.3,1894.4-1125.5c111.2-275.6,159.8-701.7,95-833.7c-50.9-104.2-518.8-296.4-937.9-382.1c-92.6-18.5-1206.6-164.4-2477.9-324.2c-2524.3-319.6-2839.2-361.3-3200.5-421.5c-370.5-60.2-1188-55.6-1574.8,11.6c-440,74.1-583.6,125.1-717.9,254.7c-201.5,196.8-203.8,405.3-4.6,697.1c463.2,678.5,880,975,1382.6,975c315,0,574.3-104.2,787.4-317.3c118.1-118.1,289.5-402.9,289.5-481.7c0-60.2,127.4-173.7,196.8-173.7c85.7,0,173.7,95,173.7,189.9c-2.3,106.5-115.8,361.3-240.8,537.3c-222.3,312.6-532.6,516.4-898.6,588.2l-189.9,37.1l145.9,132c162.1,150.5,479.4,317.3,720.2,384.4c233.9,62.5,720.2,55.6,961.1-11.6c375.2-108.8,720.2-349.7,975-678.5c111.2-145.9,185.3-182.9,275.6-141.3c78.7,37.1,134.3,132,118.1,199.2c-41.7,164.4-465.5,585.9-755,748c-62.5,34.7-115.8,71.8-115.8,83.4c0,30.1,252.4,180.6,419.2,247.8c157.5,64.8,470.1,150.5,623,171.4C5611.3,1874.2,6093,1848.7,6229.7,1811.6z"/></g></g>
</svg>